<svg width="26" height="340" xmlns="http://www.w3.org/2000/svg" xmlns:xlink="http://www.w3.org/1999/xlink" overflow="hidden"><defs><clipPath id="clip0"><rect x="187" y="121" width="26" height="340"/></clipPath><clipPath id="clip1"><rect x="188" y="121" width="24" height="340"/></clipPath><clipPath id="clip2"><rect x="188" y="120" width="24" height="341"/></clipPath></defs><g clip-path="url(#clip0)" transform="translate(-187 -121)"><g clip-path="url(#clip1)"><g clip-path="url(#clip2)"><path d="M-3.87229 5.67738C-3.87229 5.67738-3.82478 7.57789 0.0237526 7.6254 3.87228 7.67291 3.87228 5.53484 3.87228 5.53484L-0.0237625-7.6262Z" stroke="#000000" stroke-width="0.989691" fill="current" transform="matrix(1 0 0 1.01265 199.955 130.812)"/><path d="M-3.56244-143.335 3.56244-143.224 3.51304 143.335-3.37348 143.138Z" stroke="#000000" stroke-width="0.989691" fill="current" transform="matrix(1 0 0 1.01265 199.273 314.026)"/><path d="M0 0 10.9626 42.0238" stroke="#000000" stroke-width="1.97938" stroke-miterlimit="8" fill="none" fill-rule="evenodd" transform="matrix(-1 0 0 1.01265 199.936 121.501)"/><path d="M0 0 10.9626 42.0238" stroke="#000000" stroke-width="1.97938" stroke-miterlimit="8" fill="none" fill-rule="evenodd" transform="matrix(1 0 0 1.01265 199.777 121.501)"/><path d="M287.633 83.7511C287.581 85.1344 285.97 86.226 284.034 86.1892 282.193 86.1543 280.705 85.1098 280.623 83.7966" stroke="#000000" stroke-width="2.00442" stroke-miterlimit="8" fill="none" fill-rule="evenodd" transform="matrix(1.03688 0 0 1 -94.6804 52.1982)"/><path d="M291.956 110.245C292.099 112.703 287.343 114.744 281.332 114.803 275.321 114.862 270.332 112.916 270.189 110.456 270.17 110.137 270.236 109.816 270.385 109.501" stroke="#000000" stroke-width="1.97938" stroke-miterlimit="8" fill="none" fill-rule="evenodd" transform="matrix(1 0 0 1.01265 -81.2157 52.7094)"/><path d="M270.186 109.856 270.186 398.543" stroke="#000000" stroke-width="1.97938" stroke-miterlimit="8" fill="none" fill-rule="evenodd" transform="matrix(1 0 0 1.01265 -81.2157 52.3486)"/><path d="M291.959 109.856 291.959 398.543" stroke="#000000" stroke-width="1.97938" stroke-miterlimit="8" fill="none" fill-rule="evenodd" transform="matrix(1 0 0 1.01265 -81.2157 52.3486)"/><path d="M291.956 397.255C292.099 399.713 287.343 401.754 281.332 401.813 275.912 401.866 271.223 400.279 270.333 398.092" stroke="#000000" stroke-width="1.97938" stroke-miterlimit="8" fill="none" fill-rule="evenodd" transform="matrix(1 0 0 1.01265 -81.2157 52.3486)"/><path d="M277.113 114.804 277.113 401.783" stroke="#000000" stroke-width="1.97938" stroke-miterlimit="8" fill="none" fill-rule="evenodd" transform="matrix(1 0 0 1.01265 -81.2157 52.3486)"/><path d="M284.041 114.804 284.041 401.783" stroke="#000000" stroke-width="1.97938" stroke-miterlimit="8" fill="none" fill-rule="evenodd" transform="matrix(1 0 0 1.01265 -81.2157 52.3486)"/></g></g></g></svg>